<svg xmlns="http://www.w3.org/2000/svg" xmlns:xlink="http://www.w3.org/1999/xlink" width="500" zoomAndPan="magnify" viewBox="0 0 375 374.999991" height="500" preserveAspectRatio="xMidYMid meet" version="1.0"><defs><clipPath id="id1"><path d="M 12.371094 10.253906 L 361 10.253906 L 361 351 L 12.371094 351 Z M 12.371094 10.253906 " clip-rule="nonzero"/></clipPath></defs><rect x="-37.5" width="450" fill="#ffffff" y="-37.499999" height="449.999989" fill-opacity="1"/><rect x="-37.5" width="450" fill="#ffffff" y="-37.499999" height="449.999989" fill-opacity="1"/><path fill="#261300" d="M 26.601562 25.121094 L 346.140625 25.121094 L 346.140625 336.035156 L 26.601562 336.035156 Z M 26.601562 25.121094 " fill-opacity="1" fill-rule="nonzero"/><g clip-path="url(#id1)"><path fill="#ff7c00" d="M 12.070312 10.675781 L 12.070312 350.574219 L 360.671875 350.574219 L 360.671875 10.675781 Z M 26.597656 25.203125 L 346.132812 25.203125 L 346.132812 336.117188 L 26.601562 336.117188 Z M 133.066406 203.183594 L 121.59375 246.773438 C 121.296875 247.9375 120.871094 248.222656 119.414062 248.222656 L 98.054688 248.222656 C 96.605469 248.222656 96.316406 247.789062 96.605469 246.042969 L 137.859375 101.625 C 138.585938 99.011719 139.023438 96.695312 139.308594 89.566406 C 139.308594 88.550781 139.742188 88.117188 140.472656 88.117188 L 170.972656 88.117188 C 171.988281 88.117188 172.421875 88.417969 172.710938 89.566406 L 218.902344 246.332031 C 219.199219 247.496094 218.902344 248.222656 217.734375 248.222656 L 193.613281 248.222656 C 192.449219 248.222656 191.726562 247.921875 191.433594 246.914062 L 179.382812 203.183594 Z M 173.445312 179.652344 L 156.164062 111.375 L 155.863281 111.375 C 152.816406 128.375 145.109375 157.136719 139.015625 179.652344 Z M 238.789062 98.851562 C 238.789062 89.554688 245.324219 84.03125 253.605469 84.03125 C 262.460938 84.03125 268.421875 89.984375 268.421875 98.851562 C 268.421875 108.445312 262.175781 113.675781 253.3125 113.675781 C 244.890625 113.675781 238.789062 108.445312 238.789062 98.851562 Z M 240.527344 131.835938 C 240.527344 130.667969 240.960938 130.09375 242.269531 130.09375 L 265.066406 130.09375 C 266.234375 130.09375 266.808594 130.527344 266.808594 131.835938 L 266.808594 246.46875 C 266.808594 247.632812 266.507812 248.207031 265.066406 248.207031 L 242.550781 248.207031 C 241.101562 248.207031 240.664062 247.484375 240.664062 246.316406 L 240.664062 131.84375 Z M 240.527344 131.835938 " fill-opacity="1" fill-rule="nonzero"/></g></svg>