<svg xmlns="http://www.w3.org/2000/svg" xmlns:xlink="http://www.w3.org/1999/xlink" width="500" zoomAndPan="magnify" viewBox="0 0 375 374.999991" height="500" preserveAspectRatio="xMidYMid meet" version="1.0"><defs><clipPath id="id1"><path d="M 37.5 26.539062 L 348.75 26.539062 L 348.75 337.789062 L 37.5 337.789062 Z M 37.5 26.539062 " clip-rule="nonzero"/></clipPath></defs><g clip-path="url(#id1)"><path fill="#563d7c" d="M 37.5 297.65625 C 37.5 319.820312 55.46875 337.789062 77.632812 337.789062 L 308.613281 337.789062 C 330.777344 337.789062 348.75 319.820312 348.75 297.65625 L 348.75 66.671875 C 348.75 44.503906 330.777344 26.539062 308.613281 26.539062 L 77.632812 26.539062 C 55.464844 26.539062 37.5 44.507812 37.5 66.671875 Z M 37.5 297.65625 " fill-opacity="1" fill-rule="nonzero"/></g><path fill="#ffffff" d="M 166.570312 164.21875 L 166.570312 120.136719 L 205.367188 120.136719 C 209.0625 120.136719 212.625 120.445312 216.054688 121.0625 C 219.484375 121.675781 222.523438 122.777344 225.160156 124.359375 C 227.800781 125.945312 229.914062 128.144531 231.496094 130.960938 C 233.078125 133.773438 233.867188 137.382812 233.867188 141.78125 C 233.867188 149.699219 231.496094 155.414062 226.742188 158.941406 C 222 162.453125 215.921875 164.21875 208.53125 164.21875 Z M 125.128906 87.9375 L 125.128906 276.390625 L 216.457031 276.390625 C 224.894531 276.390625 233.125 275.332031 241.125 273.214844 C 249.136719 271.113281 256.261719 267.855469 262.511719 263.453125 C 268.761719 259.050781 273.722656 253.386719 277.417969 246.433594 C 281.113281 239.476562 282.960938 231.257812 282.960938 221.75 C 282.960938 209.96875 280.105469 199.890625 274.390625 191.539062 C 268.664062 183.171875 260.007812 177.324219 248.382812 173.980469 C 256.832031 169.933594 263.21875 164.742188 267.519531 158.40625 C 271.835938 152.070312 273.988281 144.15625 273.988281 134.652344 C 273.988281 125.855469 272.542969 118.464844 269.636719 112.484375 C 266.730469 106.5 262.644531 101.707031 257.367188 98.097656 C 252.082031 94.492188 245.746094 91.894531 238.367188 90.3125 C 230.972656 88.730469 222.792969 87.9375 213.816406 87.9375 Z M 166.570312 244.195312 L 166.570312 192.460938 L 211.703125 192.460938 C 220.675781 192.460938 227.886719 194.527344 233.34375 198.664062 C 238.804688 202.796875 241.527344 209.703125 241.527344 219.378906 C 241.527344 224.304688 240.6875 228.351562 239.023438 231.527344 C 237.34375 234.6875 235.105469 237.191406 232.285156 239.039062 C 229.476562 240.886719 226.21875 242.214844 222.523438 243.003906 C 218.828125 243.792969 214.960938 244.195312 210.914062 244.195312 Z M 166.570312 244.195312 " fill-opacity="1" fill-rule="nonzero"/></svg>