<svg xmlns="http://www.w3.org/2000/svg" xmlns:xlink="http://www.w3.org/1999/xlink" width="500" zoomAndPan="magnify" viewBox="0 0 375 374.999991" height="500" preserveAspectRatio="xMidYMid meet" version="1.0"><defs><clipPath id="id1"><path d="M 37.5 19.902344 L 332.25 19.902344 L 332.25 349.152344 L 37.5 349.152344 Z M 37.5 19.902344 " clip-rule="nonzero"/></clipPath><clipPath id="id2"><path d="M 131.25 131.25 L 243.75 131.25 L 243.75 243.75 L 131.25 243.75 Z M 131.25 131.25 " clip-rule="nonzero"/></clipPath></defs><g clip-path="url(#id1)"><path fill="#0277bd" d="M 332.207031 19.902344 L 37.542969 19.902344 L 63.542969 314.496094 L 184.875 349.152344 L 306.207031 314.496094 Z M 332.207031 19.902344 " fill-opacity="1" fill-rule="nonzero"/></g><path fill="#039be5" d="M 184.875 45.894531 L 184.875 322.292969 L 281.941406 294.566406 L 303.609375 45.894531 Z M 184.875 45.894531 " fill-opacity="1" fill-rule="nonzero"/><path fill="#ffffff" d="M 263.742188 89.21875 L 184.875 89.21875 L 184.875 123.875 L 227.339844 123.875 L 224.742188 158.535156 L 184.875 158.535156 L 184.875 193.191406 L 223.007812 193.191406 L 220.40625 232.183594 L 184.875 244.3125 L 184.875 280.703125 L 253.339844 258.175781 L 259.40625 158.535156 Z M 263.742188 89.21875 " fill-opacity="1" fill-rule="nonzero"/><path fill="#eeeeee" d="M 184.875 89.21875 L 184.875 123.875 L 107.742188 123.875 L 105.140625 89.21875 Z M 145.007812 158.535156 L 146.742188 193.191406 L 184.875 193.191406 L 184.875 158.535156 Z M 148.476562 210.519531 L 113.808594 210.519531 L 116.410156 258.175781 L 184.875 280.703125 L 184.875 244.3125 L 149.34375 232.183594 Z M 148.476562 210.519531 " fill-opacity="1" fill-rule="nonzero"/><g clip-path="url(#id2)"><path fill="#0277bd" d="M 187.5 131.25 C 156.433594 131.25 131.25 156.433594 131.25 187.5 C 131.25 218.566406 156.433594 243.75 187.5 243.75 C 218.566406 243.75 243.75 218.566406 243.75 187.5 C 243.75 156.433594 218.566406 131.25 187.5 131.25 " fill-opacity="1" fill-rule="nonzero"/></g></svg>