<svg xmlns="http://www.w3.org/2000/svg" xmlns:xlink="http://www.w3.org/1999/xlink" width="500" zoomAndPan="magnify" viewBox="0 0 375 374.999991" height="500" preserveAspectRatio="xMidYMid meet" version="1.0"><defs><clipPath id="id1"><path d="M 61.800781 252 L 178 252 L 178 370 L 61.800781 370 Z M 61.800781 252 " clip-rule="nonzero"/></clipPath><clipPath id="id2"><path d="M 61.800781 135 L 178 135 L 178 253 L 61.800781 253 Z M 61.800781 135 " clip-rule="nonzero"/></clipPath><clipPath id="id3"><path d="M 61.800781 18 L 178 18 L 178 136 L 61.800781 136 Z M 61.800781 18 " clip-rule="nonzero"/></clipPath><clipPath id="id4"><path d="M 177 18 L 295.050781 18 L 295.050781 136 L 177 136 Z M 177 18 " clip-rule="nonzero"/></clipPath><clipPath id="id5"><path d="M 177 135 L 295.050781 135 L 295.050781 253 L 177 253 Z M 177 135 " clip-rule="nonzero"/></clipPath></defs><rect x="-37.5" width="450" fill="#ffffff" y="-37.499999" height="449.999989" fill-opacity="1"/><rect x="-37.5" width="450" fill="#ffffff" y="-37.499999" height="449.999989" fill-opacity="1"/><g clip-path="url(#id1)"><path fill="#0acf83" d="M 119.425781 369.117188 C 121.34375 369.117188 123.257812 369.023438 125.164062 368.835938 C 127.074219 368.644531 128.96875 368.367188 130.847656 367.992188 C 132.726562 367.617188 134.585938 367.152344 136.421875 366.597656 C 138.253906 366.039062 140.058594 365.394531 141.828125 364.660156 C 143.601562 363.929688 145.332031 363.109375 147.023438 362.207031 C 148.714844 361.304688 150.355469 360.320312 151.949219 359.253906 C 153.542969 358.191406 155.082031 357.050781 156.566406 355.835938 C 158.046875 354.617188 159.464844 353.332031 160.820312 351.976562 C 162.175781 350.625 163.464844 349.203125 164.679688 347.722656 C 165.894531 346.242188 167.035156 344.703125 168.101562 343.113281 C 169.167969 341.519531 170.152344 339.875 171.054688 338.1875 C 171.960938 336.496094 172.777344 334.765625 173.511719 332.996094 C 174.246094 331.226562 174.890625 329.421875 175.445312 327.589844 C 176.003906 325.753906 176.46875 323.898438 176.84375 322.019531 C 177.21875 320.140625 177.5 318.246094 177.6875 316.339844 C 177.875 314.433594 177.96875 312.519531 177.96875 310.605469 L 177.96875 252.09375 L 119.425781 252.09375 C 117.507812 252.09375 115.597656 252.1875 113.6875 252.375 C 111.78125 252.5625 109.886719 252.84375 108.007812 253.214844 C 106.125 253.589844 104.269531 254.054688 102.433594 254.613281 C 100.597656 255.167969 98.796875 255.8125 97.023438 256.546875 C 95.253906 257.28125 93.523438 258.097656 91.832031 259 C 90.140625 259.90625 88.496094 260.886719 86.902344 261.953125 C 85.308594 263.019531 83.769531 264.15625 82.289062 265.375 C 80.804688 266.589844 79.386719 267.875 78.03125 269.230469 C 76.675781 270.585938 75.390625 272.003906 74.175781 273.484375 C 72.957031 274.964844 71.816406 276.503906 70.75 278.097656 C 69.6875 279.691406 68.703125 281.332031 67.796875 283.023438 C 66.894531 284.710938 66.074219 286.441406 65.34375 288.210938 C 64.609375 289.984375 63.964844 291.785156 63.40625 293.617188 C 62.851562 295.453125 62.382812 297.308594 62.011719 299.1875 C 61.636719 301.070312 61.355469 302.960938 61.167969 304.867188 C 60.980469 306.777344 60.886719 308.6875 60.886719 310.605469 C 60.886719 312.519531 60.980469 314.433594 61.167969 316.339844 C 61.355469 318.246094 61.636719 320.140625 62.011719 322.019531 C 62.382812 323.898438 62.851562 325.753906 63.40625 327.589844 C 63.964844 329.421875 64.609375 331.226562 65.34375 332.996094 C 66.074219 334.765625 66.894531 336.496094 67.796875 338.1875 C 68.703125 339.875 69.6875 341.519531 70.75 343.113281 C 71.816406 344.703125 72.957031 346.242188 74.175781 347.722656 C 75.390625 349.203125 76.675781 350.625 78.03125 351.976562 C 79.386719 353.332031 80.804688 354.617188 82.289062 355.835938 C 83.769531 357.050781 85.308594 358.191406 86.902344 359.253906 C 88.496094 360.320312 90.140625 361.304688 91.832031 362.207031 C 93.523438 363.109375 95.253906 363.929688 97.023438 364.660156 C 98.796875 365.394531 100.597656 366.039062 102.433594 366.597656 C 104.269531 367.152344 106.125 367.617188 108.007812 367.992188 C 109.886719 368.367188 111.78125 368.644531 113.6875 368.835938 C 115.597656 369.023438 117.507812 369.117188 119.425781 369.117188 Z M 119.425781 369.117188 " fill-opacity="1" fill-rule="nonzero"/></g><g clip-path="url(#id2)"><path fill="#a259ff" d="M 60.886719 193.582031 C 60.886719 191.664062 60.980469 189.753906 61.167969 187.84375 C 61.355469 185.9375 61.636719 184.046875 62.011719 182.164062 C 62.382812 180.285156 62.851562 178.429688 63.40625 176.59375 C 63.964844 174.761719 64.609375 172.960938 65.34375 171.1875 C 66.074219 169.417969 66.894531 167.6875 67.796875 166 C 68.703125 164.308594 69.6875 162.667969 70.75 161.074219 C 71.816406 159.480469 72.957031 157.941406 74.175781 156.460938 C 75.390625 154.980469 76.675781 153.5625 78.03125 152.207031 C 79.386719 150.851562 80.804688 149.566406 82.289062 148.351562 C 83.769531 147.132812 85.308594 145.996094 86.902344 144.929688 C 88.496094 143.863281 90.140625 142.882812 91.832031 141.976562 C 93.523438 141.074219 95.253906 140.257812 97.023438 139.523438 C 98.796875 138.789062 100.597656 138.144531 102.433594 137.589844 C 104.269531 137.03125 106.125 136.566406 108.007812 136.191406 C 109.886719 135.820312 111.78125 135.539062 113.6875 135.351562 C 115.597656 135.164062 117.507812 135.070312 119.425781 135.070312 L 177.96875 135.070312 L 177.96875 252.09375 L 119.425781 252.09375 C 117.507812 252.09375 115.597656 252 113.6875 251.8125 C 111.78125 251.621094 109.886719 251.34375 108.007812 250.96875 C 106.125 250.59375 104.269531 250.128906 102.433594 249.574219 C 100.597656 249.015625 98.796875 248.371094 97.023438 247.636719 C 95.253906 246.90625 93.523438 246.085938 91.832031 245.183594 C 90.140625 244.28125 88.496094 243.296875 86.902344 242.230469 C 85.308594 241.167969 83.769531 240.027344 82.289062 238.8125 C 80.804688 237.59375 79.386719 236.308594 78.03125 234.953125 C 76.675781 233.597656 75.390625 232.179688 74.175781 230.699219 C 72.957031 229.21875 71.816406 227.679688 70.75 226.089844 C 69.6875 224.496094 68.703125 222.851562 67.796875 221.164062 C 66.894531 219.472656 66.074219 217.742188 65.34375 215.972656 C 64.609375 214.203125 63.964844 212.398438 63.40625 210.566406 C 62.851562 208.730469 62.382812 206.875 62.011719 204.996094 C 61.636719 203.117188 61.355469 201.222656 61.167969 199.316406 C 60.980469 197.410156 60.886719 195.496094 60.886719 193.582031 Z M 60.886719 193.582031 " fill-opacity="1" fill-rule="nonzero"/></g><g clip-path="url(#id3)"><path fill="#f24e1e" d="M 60.886719 76.558594 C 60.886719 74.640625 60.980469 72.730469 61.167969 70.824219 C 61.355469 68.917969 61.636719 67.027344 62.007812 65.148438 C 62.382812 63.269531 62.847656 61.414062 63.402344 59.582031 C 63.960938 57.746094 64.605469 55.945312 65.335938 54.175781 C 66.070312 52.40625 66.886719 50.675781 67.792969 48.988281 C 68.695312 47.296875 69.679688 45.65625 70.742188 44.0625 C 71.804688 42.472656 72.945312 40.933594 74.160156 39.453125 C 75.375 37.972656 76.660156 36.554688 78.015625 35.199219 C 79.371094 33.84375 80.789062 32.558594 82.269531 31.34375 C 83.75 30.128906 85.285156 28.988281 86.878906 27.921875 C 88.472656 26.855469 90.113281 25.871094 91.804688 24.96875 C 93.492188 24.066406 95.222656 23.246094 96.992188 22.511719 C 98.761719 21.777344 100.5625 21.132812 102.398438 20.574219 C 104.230469 20.019531 106.085938 19.550781 107.964844 19.175781 C 109.847656 18.800781 111.738281 18.519531 113.644531 18.332031 C 115.554688 18.140625 117.464844 18.046875 119.382812 18.046875 L 177.921875 18.046875 L 177.921875 135.070312 L 119.425781 135.070312 C 117.507812 135.070312 115.597656 134.976562 113.6875 134.785156 C 111.78125 134.597656 109.886719 134.320312 108.007812 133.945312 C 106.125 133.570312 104.269531 133.105469 102.433594 132.550781 C 100.597656 131.992188 98.796875 131.347656 97.023438 130.613281 C 95.253906 129.882812 93.523438 129.0625 91.832031 128.160156 C 90.140625 127.257812 88.496094 126.273438 86.902344 125.207031 C 85.308594 124.144531 83.769531 123.003906 82.289062 121.789062 C 80.804688 120.570312 79.386719 119.285156 78.03125 117.929688 C 76.675781 116.574219 75.390625 115.15625 74.175781 113.675781 C 72.957031 112.195312 71.816406 110.65625 70.75 109.066406 C 69.6875 107.472656 68.703125 105.828125 67.796875 104.140625 C 66.894531 102.449219 66.074219 100.71875 65.34375 98.949219 C 64.609375 97.179688 63.964844 95.375 63.40625 93.542969 C 62.851562 91.707031 62.382812 89.851562 62.011719 87.972656 C 61.636719 86.09375 61.355469 84.199219 61.167969 82.292969 C 60.980469 80.386719 60.886719 78.472656 60.886719 76.558594 Z M 60.886719 76.558594 " fill-opacity="1" fill-rule="nonzero"/></g><g clip-path="url(#id4)"><path fill="#ff7262" d="M 177.96875 18.046875 L 236.507812 18.046875 C 238.425781 18.046875 240.339844 18.140625 242.246094 18.328125 C 244.15625 18.515625 246.050781 18.796875 247.929688 19.167969 C 249.808594 19.542969 251.667969 20.007812 253.503906 20.566406 C 255.335938 21.121094 257.140625 21.765625 258.910156 22.5 C 260.683594 23.234375 262.414062 24.050781 264.105469 24.953125 C 265.796875 25.859375 267.4375 26.839844 269.03125 27.90625 C 270.628906 28.972656 272.164062 30.109375 273.648438 31.328125 C 275.128906 32.542969 276.546875 33.828125 277.902344 35.183594 C 279.257812 36.539062 280.546875 37.957031 281.761719 39.4375 C 282.976562 40.917969 284.121094 42.457031 285.183594 44.050781 C 286.25 45.644531 287.234375 47.285156 288.136719 48.976562 C 289.042969 50.664062 289.859375 52.394531 290.59375 54.164062 C 291.328125 55.9375 291.972656 57.738281 292.53125 59.570312 C 293.085938 61.40625 293.550781 63.261719 293.925781 65.140625 C 294.300781 67.023438 294.582031 68.914062 294.769531 70.820312 C 294.957031 72.730469 295.050781 74.640625 295.050781 76.558594 C 295.050781 78.472656 294.957031 80.386719 294.769531 82.292969 C 294.582031 84.199219 294.300781 86.09375 293.925781 87.972656 C 293.550781 89.851562 293.085938 91.707031 292.53125 93.542969 C 291.972656 95.375 291.328125 97.179688 290.59375 98.949219 C 289.859375 100.71875 289.042969 102.449219 288.136719 104.140625 C 287.234375 105.828125 286.25 107.472656 285.183594 109.066406 C 284.121094 110.65625 282.976562 112.195312 281.761719 113.675781 C 280.546875 115.15625 279.257812 116.574219 277.902344 117.929688 C 276.546875 119.285156 275.128906 120.570312 273.648438 121.789062 C 272.164062 123.003906 270.628906 124.144531 269.03125 125.207031 C 267.4375 126.273438 265.796875 127.257812 264.105469 128.160156 C 262.414062 129.0625 260.683594 129.882812 258.910156 130.613281 C 257.140625 131.347656 255.335938 131.992188 253.503906 132.550781 C 251.667969 133.105469 249.808594 133.570312 247.929688 133.945312 C 246.050781 134.320312 244.15625 134.597656 242.246094 134.785156 C 240.339844 134.976562 238.425781 135.070312 236.507812 135.070312 L 177.96875 135.070312 Z M 177.96875 18.046875 " fill-opacity="1" fill-rule="nonzero"/></g><g clip-path="url(#id5)"><path fill="#1abcfe" d="M 295.050781 193.582031 C 295.050781 195.496094 294.957031 197.410156 294.769531 199.316406 C 294.582031 201.222656 294.300781 203.117188 293.925781 204.996094 C 293.550781 206.875 293.085938 208.730469 292.53125 210.566406 C 291.972656 212.398438 291.328125 214.203125 290.59375 215.972656 C 289.859375 217.742188 289.042969 219.472656 288.136719 221.164062 C 287.234375 222.851562 286.25 224.496094 285.183594 226.089844 C 284.121094 227.679688 282.976562 229.21875 281.761719 230.699219 C 280.546875 232.179688 279.257812 233.597656 277.902344 234.953125 C 276.546875 236.308594 275.128906 237.59375 273.648438 238.8125 C 272.164062 240.027344 270.628906 241.167969 269.03125 242.230469 C 267.4375 243.296875 265.796875 244.28125 264.105469 245.183594 C 262.414062 246.085938 260.683594 246.90625 258.910156 247.636719 C 257.140625 248.371094 255.335938 249.015625 253.503906 249.574219 C 251.667969 250.128906 249.808594 250.59375 247.929688 250.96875 C 246.050781 251.34375 244.15625 251.621094 242.246094 251.8125 C 240.339844 252 238.425781 252.09375 236.507812 252.09375 C 234.59375 252.09375 232.679688 252 230.769531 251.8125 C 228.863281 251.621094 226.96875 251.34375 225.089844 250.96875 C 223.207031 250.59375 221.351562 250.128906 219.515625 249.574219 C 217.679688 249.015625 215.878906 248.371094 214.105469 247.636719 C 212.335938 246.90625 210.605469 246.085938 208.914062 245.183594 C 207.222656 244.28125 205.578125 243.296875 203.984375 242.230469 C 202.390625 241.167969 200.851562 240.027344 199.371094 238.8125 C 197.890625 237.59375 196.46875 236.308594 195.113281 234.953125 C 193.757812 233.597656 192.472656 232.179688 191.257812 230.699219 C 190.039062 229.21875 188.898438 227.679688 187.832031 226.089844 C 186.769531 224.496094 185.785156 222.851562 184.878906 221.164062 C 183.976562 219.472656 183.15625 217.742188 182.425781 215.972656 C 181.691406 214.203125 181.046875 212.398438 180.488281 210.566406 C 179.933594 208.730469 179.46875 206.875 179.09375 204.996094 C 178.71875 203.117188 178.4375 201.222656 178.25 199.316406 C 178.0625 197.410156 177.96875 195.496094 177.96875 193.582031 C 177.96875 191.664062 178.0625 189.753906 178.25 187.84375 C 178.4375 185.9375 178.71875 184.046875 179.09375 182.164062 C 179.46875 180.285156 179.933594 178.429688 180.488281 176.59375 C 181.046875 174.761719 181.691406 172.960938 182.425781 171.1875 C 183.15625 169.417969 183.976562 167.6875 184.878906 166 C 185.785156 164.308594 186.769531 162.667969 187.832031 161.074219 C 188.898438 159.480469 190.039062 157.941406 191.257812 156.460938 C 192.472656 154.980469 193.757812 153.5625 195.113281 152.207031 C 196.46875 150.851562 197.890625 149.566406 199.371094 148.351562 C 200.851562 147.132812 202.390625 145.996094 203.984375 144.929688 C 205.578125 143.863281 207.222656 142.882812 208.914062 141.976562 C 210.605469 141.074219 212.335938 140.257812 214.105469 139.523438 C 215.878906 138.789062 217.679688 138.144531 219.515625 137.589844 C 221.351562 137.03125 223.207031 136.566406 225.089844 136.191406 C 226.96875 135.820312 228.863281 135.539062 230.769531 135.351562 C 232.679688 135.164062 234.59375 135.070312 236.507812 135.070312 C 238.425781 135.070312 240.339844 135.164062 242.246094 135.351562 C 244.15625 135.539062 246.050781 135.820312 247.929688 136.191406 C 249.808594 136.566406 251.667969 137.03125 253.503906 137.589844 C 255.335938 138.144531 257.140625 138.789062 258.910156 139.523438 C 260.683594 140.257812 262.414062 141.074219 264.105469 141.976562 C 265.796875 142.882812 267.4375 143.863281 269.03125 144.929688 C 270.628906 145.996094 272.164062 147.132812 273.648438 148.351562 C 275.128906 149.566406 276.546875 150.851562 277.902344 152.207031 C 279.261719 153.5625 280.546875 154.980469 281.761719 156.460938 C 282.976562 157.941406 284.121094 159.480469 285.183594 161.074219 C 286.25 162.667969 287.234375 164.308594 288.136719 166 C 289.042969 167.6875 289.859375 169.417969 290.59375 171.1875 C 291.328125 172.960938 291.972656 174.761719 292.53125 176.59375 C 293.085938 178.429688 293.550781 180.285156 293.925781 182.164062 C 294.300781 184.046875 294.582031 185.9375 294.769531 187.84375 C 294.957031 189.753906 295.050781 191.664062 295.050781 193.582031 Z M 295.050781 193.582031 " fill-opacity="1" fill-rule="nonzero"/></g></svg>