<svg xmlns="http://www.w3.org/2000/svg" xmlns:xlink="http://www.w3.org/1999/xlink" width="500" zoomAndPan="magnify" viewBox="0 0 375 374.999991" height="500" preserveAspectRatio="xMidYMid meet" version="1.0"><defs><clipPath id="id1"><path d="M 24.65625 45.78125 L 350.15625 45.78125 L 350.15625 290.28125 L 24.65625 290.28125 Z M 24.65625 45.78125 " clip-rule="nonzero"/></clipPath><clipPath id="id2"><path d="M 329.472656 82.066406 L 149.070312 82.066406 L 149.070312 52.214844 C 149.070312 51.804688 149.03125 51.398438 148.953125 51 C 148.871094 50.597656 148.753906 50.210938 148.597656 49.832031 C 148.441406 49.453125 148.25 49.09375 148.023438 48.757812 C 147.796875 48.417969 147.539062 48.101562 147.25 47.8125 C 146.960938 47.523438 146.644531 47.265625 146.308594 47.039062 C 145.96875 46.8125 145.609375 46.621094 145.230469 46.464844 C 144.855469 46.308594 144.464844 46.191406 144.0625 46.109375 C 143.664062 46.03125 143.257812 45.992188 142.851562 45.992188 L 30.878906 45.992188 C 30.46875 45.992188 30.066406 46.03125 29.664062 46.109375 C 29.261719 46.191406 28.875 46.308594 28.496094 46.464844 C 28.121094 46.621094 27.761719 46.8125 27.421875 47.039062 C 27.082031 47.265625 26.769531 47.523438 26.480469 47.8125 C 26.191406 48.101562 25.933594 48.417969 25.707031 48.757812 C 25.476562 49.09375 25.285156 49.453125 25.128906 49.832031 C 24.972656 50.210938 24.855469 50.597656 24.777344 51 C 24.695312 51.398438 24.65625 51.804688 24.65625 52.214844 L 24.65625 283.789062 C 24.65625 284.195312 24.695312 284.601562 24.777344 285 C 24.855469 285.402344 24.972656 285.792969 25.128906 286.167969 C 25.285156 286.546875 25.476562 286.90625 25.707031 287.246094 C 25.933594 287.585938 26.191406 287.898438 26.480469 288.1875 C 26.769531 288.476562 27.082031 288.734375 27.421875 288.960938 C 27.761719 289.1875 28.121094 289.378906 28.496094 289.535156 C 28.875 289.691406 29.261719 289.808594 29.664062 289.890625 C 30.066406 289.96875 30.46875 290.011719 30.878906 290.011719 L 142.851562 290.011719 C 143.257812 290.011719 143.664062 289.96875 144.0625 289.890625 C 144.464844 289.808594 144.855469 289.691406 145.230469 289.535156 C 145.609375 289.378906 145.96875 289.1875 146.308594 288.960938 C 146.644531 288.734375 146.960938 288.476562 147.25 288.1875 C 147.539062 287.898438 147.796875 287.585938 148.023438 287.246094 C 148.25 286.90625 148.441406 286.546875 148.597656 286.167969 C 148.753906 285.792969 148.871094 285.402344 148.953125 285 C 149.03125 284.601562 149.070312 284.195312 149.070312 283.789062 L 149.070312 239.964844 L 212.367188 239.964844 C 211.445312 246.78125 209.527344 253.304688 206.613281 259.535156 C 205.703125 259.785156 204.820312 260.105469 203.964844 260.5 C 203.109375 260.890625 202.289062 261.351562 201.507812 261.878906 C 200.726562 262.40625 199.992188 262.992188 199.304688 263.636719 C 198.617188 264.285156 197.988281 264.980469 197.414062 265.730469 C 196.839844 266.476562 196.332031 267.269531 195.886719 268.097656 C 195.441406 268.929688 195.066406 269.792969 194.761719 270.683594 C 194.457031 271.578125 194.226562 272.488281 194.070312 273.417969 C 193.914062 274.347656 193.835938 275.285156 193.828125 276.226562 L 193.828125 283.742188 C 193.828125 284.148438 193.871094 284.554688 193.949219 284.953125 C 194.027344 285.355469 194.148438 285.746094 194.304688 286.121094 C 194.460938 286.5 194.652344 286.859375 194.878906 287.199219 C 195.105469 287.539062 195.363281 287.851562 195.652344 288.140625 C 195.941406 288.429688 196.253906 288.6875 196.59375 288.914062 C 196.933594 289.140625 197.292969 289.332031 197.667969 289.488281 C 198.046875 289.644531 198.4375 289.765625 198.835938 289.84375 C 199.238281 289.921875 199.640625 289.964844 200.050781 289.964844 L 259.148438 289.964844 C 259.554688 289.964844 259.960938 289.921875 260.359375 289.84375 C 260.761719 289.765625 261.152344 289.644531 261.527344 289.488281 C 261.90625 289.332031 262.265625 289.140625 262.601562 288.914062 C 262.941406 288.6875 263.257812 288.429688 263.546875 288.140625 C 263.835938 287.851562 264.09375 287.539062 264.320312 287.199219 C 264.546875 286.859375 264.738281 286.5 264.894531 286.121094 C 265.050781 285.746094 265.167969 285.355469 265.25 284.953125 C 265.328125 284.554688 265.367188 284.148438 265.367188 283.742188 L 265.367188 276.226562 C 265.367188 275.28125 265.289062 274.34375 265.132812 273.414062 C 264.980469 272.480469 264.75 271.566406 264.449219 270.671875 C 264.144531 269.777344 263.773438 268.914062 263.328125 268.082031 C 262.886719 267.25 262.375 266.457031 261.804688 265.707031 C 261.230469 264.953125 260.601562 264.253906 259.914062 263.605469 C 259.230469 262.957031 258.492188 262.371094 257.710938 261.839844 C 256.929688 261.3125 256.109375 260.851562 255.25 260.457031 C 254.394531 260.0625 253.511719 259.738281 252.601562 259.488281 C 249.6875 253.257812 247.769531 246.734375 246.847656 239.917969 L 329.472656 239.917969 C 330.148438 239.917969 330.820312 239.882812 331.492188 239.816406 C 332.164062 239.75 332.832031 239.652344 333.492188 239.519531 C 334.152344 239.386719 334.808594 239.222656 335.453125 239.027344 C 336.097656 238.832031 336.734375 238.601562 337.355469 238.34375 C 337.980469 238.085938 338.589844 237.796875 339.183594 237.480469 C 339.777344 237.160156 340.355469 236.8125 340.917969 236.4375 C 341.476562 236.0625 342.019531 235.664062 342.542969 235.234375 C 343.0625 234.804688 343.5625 234.351562 344.039062 233.875 C 344.515625 233.398438 344.96875 232.898438 345.398438 232.378906 C 345.824219 231.855469 346.226562 231.316406 346.601562 230.753906 C 346.976562 230.191406 347.324219 229.613281 347.640625 229.019531 C 347.960938 228.425781 348.246094 227.816406 348.507812 227.191406 C 348.765625 226.566406 348.992188 225.933594 349.1875 225.289062 C 349.382812 224.640625 349.546875 223.988281 349.679688 223.324219 C 349.8125 222.664062 349.910156 221.996094 349.976562 221.324219 C 350.046875 220.652344 350.078125 219.980469 350.078125 219.304688 L 350.078125 102.632812 C 350.078125 101.957031 350.042969 101.285156 349.972656 100.613281 C 349.90625 99.945312 349.804688 99.277344 349.671875 98.617188 C 349.539062 97.957031 349.375 97.304688 349.175781 96.660156 C 348.980469 96.015625 348.753906 95.382812 348.492188 94.761719 C 348.234375 94.136719 347.945312 93.53125 347.625 92.9375 C 347.308594 92.34375 346.960938 91.765625 346.585938 91.207031 C 346.210938 90.644531 345.808594 90.105469 345.378906 89.585938 C 344.953125 89.066406 344.5 88.566406 344.023438 88.089844 C 343.546875 87.613281 343.046875 87.164062 342.523438 86.738281 C 342.003906 86.308594 341.464844 85.910156 340.902344 85.535156 C 340.34375 85.160156 339.765625 84.816406 339.171875 84.496094 C 338.578125 84.179688 337.96875 83.890625 337.34375 83.632812 C 336.722656 83.375 336.089844 83.148438 335.445312 82.953125 C 334.800781 82.757812 334.148438 82.59375 333.484375 82.464844 C 332.824219 82.332031 332.160156 82.234375 331.488281 82.167969 C 330.820312 82.101562 330.148438 82.066406 329.472656 82.066406 Z M 329.472656 94.511719 C 330.007812 94.511719 330.539062 94.566406 331.066406 94.671875 C 331.589844 94.777344 332.101562 94.929688 332.59375 95.136719 C 333.089844 95.34375 333.558594 95.59375 334.003906 95.890625 C 334.449219 96.191406 334.863281 96.527344 335.242188 96.90625 C 335.621094 97.285156 335.957031 97.699219 336.257812 98.144531 C 336.554688 98.589844 336.804688 99.058594 337.011719 99.554688 C 337.21875 100.050781 337.371094 100.5625 337.476562 101.085938 C 337.582031 101.613281 337.636719 102.140625 337.636719 102.679688 L 337.636719 197.183594 L 149.070312 197.183594 L 149.070312 94.511719 Z M 136.628906 277.566406 L 37.097656 277.566406 L 37.097656 58.4375 L 136.628906 58.4375 Z M 252.925781 277.566406 L 206.269531 277.566406 L 206.269531 276.226562 C 206.273438 275.902344 206.304688 275.585938 206.367188 275.269531 C 206.433594 274.949219 206.523438 274.644531 206.648438 274.34375 C 206.773438 274.046875 206.925781 273.765625 207.105469 273.496094 C 207.28125 273.226562 207.484375 272.976562 207.714844 272.75 C 207.941406 272.519531 208.191406 272.316406 208.457031 272.136719 C 208.726562 271.957031 209.007812 271.804688 209.304688 271.679688 C 209.605469 271.554688 209.910156 271.460938 210.226562 271.394531 C 210.542969 271.332031 210.863281 271.296875 211.1875 271.296875 L 248.011719 271.296875 C 248.335938 271.296875 248.65625 271.332031 248.972656 271.394531 C 249.285156 271.460938 249.59375 271.554688 249.890625 271.679688 C 250.1875 271.804688 250.472656 271.957031 250.738281 272.136719 C 251.007812 272.316406 251.257812 272.519531 251.484375 272.75 C 251.710938 272.976562 251.914062 273.226562 252.09375 273.496094 C 252.273438 273.765625 252.425781 274.046875 252.546875 274.34375 C 252.671875 274.644531 252.765625 274.949219 252.828125 275.269531 C 252.894531 275.585938 252.925781 275.902344 252.925781 276.226562 Z M 238.929688 258.898438 L 220.316406 258.898438 C 222.707031 252.796875 224.21875 246.488281 224.839844 239.964844 L 234.359375 239.964844 C 234.988281 246.484375 236.5 252.796875 238.882812 258.898438 Z M 329.472656 227.519531 L 149.070312 227.519531 L 149.070312 209.628906 L 337.683594 209.628906 L 337.683594 219.351562 C 337.683594 219.890625 337.628906 220.421875 337.523438 220.949219 C 337.417969 221.476562 337.261719 221.988281 337.054688 222.484375 C 336.847656 222.984375 336.59375 223.453125 336.292969 223.902344 C 335.992188 224.347656 335.652344 224.761719 335.273438 225.140625 C 334.890625 225.519531 334.476562 225.855469 334.027344 226.15625 C 333.578125 226.453125 333.105469 226.703125 332.609375 226.90625 C 332.113281 227.109375 331.597656 227.265625 331.070312 227.367188 C 330.542969 227.472656 330.011719 227.519531 329.472656 227.519531 Z M 240.5625 217.9375 C 240.5625 218.34375 240.523438 218.75 240.445312 219.152344 C 240.363281 219.550781 240.246094 219.941406 240.089844 220.316406 C 239.933594 220.695312 239.742188 221.054688 239.515625 221.394531 C 239.289062 221.734375 239.03125 222.046875 238.742188 222.335938 C 238.453125 222.625 238.136719 222.882812 237.796875 223.109375 C 237.457031 223.335938 237.101562 223.527344 236.722656 223.683594 C 236.34375 223.84375 235.957031 223.960938 235.554688 224.039062 C 235.15625 224.121094 234.75 224.160156 234.34375 224.160156 L 224.808594 224.160156 C 224.402344 224.160156 223.996094 224.121094 223.59375 224.039062 C 223.195312 223.960938 222.804688 223.84375 222.429688 223.683594 C 222.050781 223.527344 221.691406 223.335938 221.351562 223.109375 C 221.011719 222.882812 220.699219 222.625 220.410156 222.335938 C 220.121094 222.046875 219.863281 221.734375 219.636719 221.394531 C 219.410156 221.054688 219.21875 220.695312 219.0625 220.316406 C 218.90625 219.941406 218.789062 219.550781 218.707031 219.152344 C 218.628906 218.75 218.589844 218.34375 218.589844 217.9375 C 218.589844 217.527344 218.628906 217.125 218.707031 216.722656 C 218.789062 216.320312 218.90625 215.933594 219.0625 215.554688 C 219.21875 215.179688 219.410156 214.820312 219.636719 214.480469 C 219.863281 214.140625 220.121094 213.824219 220.410156 213.535156 C 220.699219 213.246094 221.011719 212.988281 221.351562 212.761719 C 221.691406 212.535156 222.050781 212.34375 222.429688 212.1875 C 222.804688 212.03125 223.195312 211.914062 223.59375 211.832031 C 223.996094 211.753906 224.402344 211.714844 224.808594 211.714844 L 234.390625 211.714844 C 234.796875 211.714844 235.203125 211.753906 235.601562 211.832031 C 236.003906 211.914062 236.390625 212.03125 236.769531 212.1875 C 237.148438 212.34375 237.503906 212.535156 237.84375 212.761719 C 238.183594 212.988281 238.5 213.246094 238.789062 213.535156 C 239.078125 213.824219 239.335938 214.140625 239.5625 214.480469 C 239.789062 214.820312 239.980469 215.179688 240.136719 215.554688 C 240.292969 215.933594 240.410156 216.320312 240.488281 216.722656 C 240.570312 217.125 240.609375 217.527344 240.609375 217.9375 Z M 86.863281 216.210938 C 86.21875 216.210938 85.574219 216.242188 84.929688 216.304688 C 84.289062 216.367188 83.652344 216.460938 83.015625 216.589844 C 82.382812 216.714844 81.757812 216.871094 81.140625 217.058594 C 80.523438 217.246094 79.914062 217.464844 79.316406 217.710938 C 78.722656 217.957031 78.136719 218.234375 77.566406 218.539062 C 77 218.84375 76.445312 219.175781 75.910156 219.535156 C 75.371094 219.894531 74.851562 220.277344 74.355469 220.6875 C 73.855469 221.097656 73.375 221.53125 72.921875 221.988281 C 72.464844 222.445312 72.03125 222.921875 71.621094 223.421875 C 71.210938 223.921875 70.828125 224.4375 70.46875 224.976562 C 70.109375 225.511719 69.777344 226.066406 69.472656 226.636719 C 69.167969 227.207031 68.894531 227.789062 68.644531 228.386719 C 68.398438 228.984375 68.179688 229.589844 67.992188 230.210938 C 67.804688 230.828125 67.648438 231.453125 67.523438 232.085938 C 67.398438 232.722656 67.300781 233.359375 67.238281 234.003906 C 67.175781 234.644531 67.144531 235.289062 67.144531 235.933594 C 67.144531 236.582031 67.175781 237.226562 67.238281 237.867188 C 67.300781 238.511719 67.398438 239.148438 67.523438 239.785156 C 67.648438 240.417969 67.804688 241.042969 67.992188 241.660156 C 68.179688 242.28125 68.398438 242.886719 68.644531 243.484375 C 68.894531 244.082031 69.167969 244.664062 69.472656 245.234375 C 69.777344 245.804688 70.109375 246.355469 70.46875 246.894531 C 70.828125 247.429688 71.210938 247.949219 71.621094 248.449219 C 72.03125 248.949219 72.464844 249.425781 72.921875 249.882812 C 73.375 250.339844 73.855469 250.773438 74.355469 251.183594 C 74.851562 251.59375 75.371094 251.976562 75.910156 252.335938 C 76.445312 252.695312 77 253.027344 77.566406 253.332031 C 78.136719 253.636719 78.722656 253.914062 79.316406 254.160156 C 79.914062 254.40625 80.523438 254.625 81.140625 254.8125 C 81.757812 255 82.382812 255.15625 83.015625 255.28125 C 83.652344 255.40625 84.289062 255.503906 84.929688 255.566406 C 85.574219 255.628906 86.21875 255.660156 86.863281 255.660156 C 87.511719 255.660156 88.15625 255.628906 88.796875 255.566406 C 89.441406 255.503906 90.078125 255.40625 90.710938 255.28125 C 91.34375 255.15625 91.96875 255 92.589844 254.8125 C 93.207031 254.625 93.8125 254.40625 94.410156 254.160156 C 95.007812 253.914062 95.589844 253.636719 96.160156 253.332031 C 96.730469 253.027344 97.28125 252.695312 97.820312 252.335938 C 98.355469 251.976562 98.875 251.59375 99.375 251.183594 C 99.875 250.773438 100.351562 250.339844 100.808594 249.882812 C 101.265625 249.425781 101.699219 248.949219 102.109375 248.449219 C 102.515625 247.949219 102.902344 247.429688 103.261719 246.894531 C 103.621094 246.355469 103.949219 245.804688 104.253906 245.234375 C 104.558594 244.664062 104.835938 244.082031 105.082031 243.484375 C 105.328125 242.886719 105.546875 242.28125 105.734375 241.660156 C 105.921875 241.042969 106.078125 240.417969 106.203125 239.785156 C 106.332031 239.148438 106.425781 238.511719 106.488281 237.867188 C 106.550781 237.226562 106.582031 236.582031 106.582031 235.933594 C 106.582031 235.289062 106.550781 234.644531 106.484375 234.003906 C 106.421875 233.359375 106.328125 232.722656 106.199219 232.089844 C 106.074219 231.457031 105.914062 230.832031 105.726562 230.210938 C 105.539062 229.59375 105.320312 228.988281 105.074219 228.390625 C 104.828125 227.796875 104.550781 227.210938 104.246094 226.644531 C 103.941406 226.074219 103.609375 225.519531 103.25 224.984375 C 102.890625 224.445312 102.507812 223.929688 102.097656 223.429688 C 101.6875 222.929688 101.253906 222.453125 100.800781 221.996094 C 100.34375 221.539062 99.863281 221.105469 99.367188 220.695312 C 98.867188 220.285156 98.347656 219.902344 97.8125 219.542969 C 97.277344 219.183594 96.722656 218.851562 96.152344 218.546875 C 95.585938 218.242188 95.003906 217.96875 94.40625 217.71875 C 93.808594 217.472656 93.203125 217.253906 92.585938 217.066406 C 91.96875 216.878906 91.34375 216.71875 90.710938 216.59375 C 90.074219 216.46875 89.4375 216.371094 88.796875 216.308594 C 88.152344 216.242188 87.507812 216.210938 86.863281 216.210938 Z M 86.863281 243.214844 C 86.386719 243.214844 85.914062 243.167969 85.445312 243.074219 C 84.976562 242.984375 84.519531 242.84375 84.078125 242.660156 C 83.636719 242.480469 83.21875 242.253906 82.820312 241.988281 C 82.421875 241.722656 82.054688 241.421875 81.71875 241.082031 C 81.378906 240.746094 81.078125 240.378906 80.8125 239.980469 C 80.546875 239.582031 80.324219 239.164062 80.140625 238.722656 C 79.957031 238.28125 79.820312 237.824219 79.726562 237.355469 C 79.632812 236.886719 79.585938 236.414062 79.585938 235.933594 C 79.585938 235.457031 79.632812 234.984375 79.726562 234.515625 C 79.820312 234.046875 79.957031 233.589844 80.140625 233.148438 C 80.324219 232.707031 80.546875 232.289062 80.8125 231.890625 C 81.078125 231.492188 81.378906 231.125 81.71875 230.789062 C 82.054688 230.449219 82.421875 230.148438 82.820312 229.882812 C 83.21875 229.617188 83.636719 229.390625 84.078125 229.210938 C 84.519531 229.027344 84.976562 228.886719 85.445312 228.792969 C 85.914062 228.703125 86.386719 228.65625 86.863281 228.65625 C 87.34375 228.65625 87.816406 228.703125 88.285156 228.792969 C 88.753906 228.886719 89.207031 229.027344 89.648438 229.210938 C 90.089844 229.390625 90.511719 229.617188 90.90625 229.882812 C 91.304688 230.148438 91.671875 230.449219 92.011719 230.789062 C 92.347656 231.125 92.648438 231.492188 92.914062 231.890625 C 93.179688 232.289062 93.40625 232.707031 93.589844 233.148438 C 93.769531 233.589844 93.910156 234.046875 94.003906 234.515625 C 94.097656 234.984375 94.140625 235.457031 94.140625 235.933594 C 94.140625 236.414062 94.09375 236.886719 94 237.355469 C 93.90625 237.824219 93.765625 238.277344 93.585938 238.71875 C 93.402344 239.160156 93.175781 239.578125 92.910156 239.976562 C 92.644531 240.375 92.34375 240.742188 92.007812 241.078125 C 91.667969 241.417969 91.300781 241.71875 90.902344 241.984375 C 90.507812 242.25 90.089844 242.472656 89.648438 242.65625 C 89.207031 242.839844 88.75 242.980469 88.28125 243.074219 C 87.816406 243.167969 87.339844 243.214844 86.863281 243.214844 Z M 124.1875 68.984375 L 49.539062 68.984375 C 49.132812 68.984375 48.726562 69.023438 48.324219 69.101562 C 47.925781 69.183594 47.535156 69.300781 47.160156 69.457031 C 46.78125 69.613281 46.421875 69.804688 46.082031 70.03125 C 45.742188 70.257812 45.429688 70.515625 45.140625 70.804688 C 44.851562 71.09375 44.59375 71.410156 44.367188 71.75 C 44.140625 72.089844 43.949219 72.445312 43.792969 72.824219 C 43.636719 73.203125 43.519531 73.589844 43.4375 73.992188 C 43.359375 74.390625 43.320312 74.796875 43.320312 75.207031 L 43.320312 101.992188 C 43.320312 102.402344 43.359375 102.808594 43.4375 103.207031 C 43.519531 103.609375 43.636719 103.996094 43.792969 104.375 C 43.949219 104.753906 44.140625 105.109375 44.367188 105.449219 C 44.59375 105.789062 44.851562 106.105469 45.140625 106.394531 C 45.429688 106.683594 45.742188 106.941406 46.082031 107.167969 C 46.421875 107.394531 46.78125 107.585938 47.160156 107.742188 C 47.535156 107.898438 47.925781 108.015625 48.324219 108.097656 C 48.726562 108.175781 49.132812 108.214844 49.539062 108.214844 L 124.1875 108.214844 C 124.597656 108.214844 125 108.175781 125.402344 108.097656 C 125.804688 108.015625 126.191406 107.898438 126.570312 107.742188 C 126.945312 107.585938 127.304688 107.394531 127.644531 107.167969 C 127.984375 106.941406 128.296875 106.683594 128.585938 106.394531 C 128.875 106.105469 129.132812 105.789062 129.359375 105.449219 C 129.585938 105.109375 129.78125 104.753906 129.9375 104.375 C 130.09375 103.996094 130.210938 103.609375 130.289062 103.207031 C 130.371094 102.808594 130.410156 102.402344 130.410156 101.992188 L 130.410156 75.191406 C 130.410156 74.78125 130.371094 74.375 130.289062 73.976562 C 130.210938 73.574219 130.09375 73.1875 129.9375 72.808594 C 129.78125 72.429688 129.585938 72.074219 129.359375 71.734375 C 129.132812 71.394531 128.875 71.078125 128.585938 70.789062 C 128.296875 70.5 127.984375 70.242188 127.644531 70.015625 C 127.304688 69.789062 126.945312 69.597656 126.570312 69.441406 C 126.191406 69.285156 125.804688 69.167969 125.402344 69.085938 C 125 69.007812 124.597656 68.96875 124.1875 68.96875 Z M 117.96875 95.769531 L 55.761719 95.769531 L 55.761719 81.414062 L 117.96875 81.414062 Z M 130.410156 141.664062 C 130.410156 142.070312 130.371094 142.476562 130.289062 142.875 C 130.210938 143.277344 130.09375 143.667969 129.9375 144.042969 C 129.78125 144.421875 129.585938 144.78125 129.359375 145.121094 C 129.132812 145.460938 128.875 145.773438 128.585938 146.0625 C 128.296875 146.351562 127.984375 146.609375 127.644531 146.835938 C 127.304688 147.0625 126.945312 147.253906 126.570312 147.410156 C 126.191406 147.566406 125.804688 147.6875 125.402344 147.765625 C 125 147.847656 124.597656 147.886719 124.1875 147.886719 L 49.539062 147.886719 C 49.132812 147.886719 48.726562 147.847656 48.324219 147.765625 C 47.925781 147.6875 47.535156 147.566406 47.160156 147.410156 C 46.78125 147.253906 46.421875 147.0625 46.082031 146.835938 C 45.742188 146.609375 45.429688 146.351562 45.140625 146.0625 C 44.851562 145.773438 44.59375 145.460938 44.367188 145.121094 C 44.140625 144.78125 43.949219 144.421875 43.792969 144.042969 C 43.636719 143.667969 43.519531 143.277344 43.4375 142.875 C 43.359375 142.476562 43.320312 142.070312 43.320312 141.664062 C 43.320312 141.253906 43.359375 140.851562 43.4375 140.449219 C 43.519531 140.046875 43.636719 139.660156 43.792969 139.28125 C 43.949219 138.902344 44.140625 138.546875 44.367188 138.207031 C 44.59375 137.867188 44.851562 137.550781 45.140625 137.261719 C 45.429688 136.972656 45.742188 136.714844 46.082031 136.488281 C 46.421875 136.261719 46.78125 136.070312 47.160156 135.914062 C 47.535156 135.757812 47.925781 135.640625 48.324219 135.558594 C 48.726562 135.480469 49.132812 135.441406 49.539062 135.441406 L 124.1875 135.441406 C 124.597656 135.441406 125.003906 135.480469 125.40625 135.5625 C 125.808594 135.640625 126.199219 135.757812 126.578125 135.917969 C 126.953125 136.074219 127.3125 136.265625 127.65625 136.496094 C 127.996094 136.722656 128.308594 136.984375 128.597656 137.273438 C 128.886719 137.566406 129.144531 137.878906 129.371094 138.222656 C 129.597656 138.5625 129.789062 138.925781 129.945312 139.304688 C 130.101562 139.683594 130.21875 140.074219 130.296875 140.476562 C 130.375 140.878906 130.410156 141.285156 130.410156 141.695312 Z M 130.410156 141.664062 " clip-rule="nonzero"/></clipPath></defs><g clip-path="url(#id1)"><g clip-path="url(#id2)"><path fill="#000000" d="M 24.65625 45.992188 L 24.65625 290.011719 L 350.078125 290.011719 L 350.078125 45.992188 Z M 24.65625 45.992188 " fill-opacity="1" fill-rule="nonzero"/></g></g></svg>