<svg xmlns="http://www.w3.org/2000/svg" xmlns:xlink="http://www.w3.org/1999/xlink" width="500" zoomAndPan="magnify" viewBox="0 0 375 374.999991" height="500" preserveAspectRatio="xMidYMid meet" version="1.0"><defs><clipPath id="id1"><path d="M 44.292969 25 L 332.292969 25 L 332.292969 352 L 44.292969 352 Z M 44.292969 25 " clip-rule="nonzero"/></clipPath></defs><g clip-path="url(#id1)"><path fill="#e44d26" d="M 70.4375 319.03125 L 44.210938 25.011719 L 332.375 25.011719 L 306.128906 318.992188 L 188.109375 351.679688 Z M 70.4375 319.03125 " fill-opacity="1" fill-rule="nonzero"/></g><path fill="#f16529" d="M 283.648438 300.269531 L 306.085938 49.050781 L 188.292969 49.050781 L 188.292969 326.699219 Z M 283.648438 300.269531 " fill-opacity="1" fill-rule="nonzero"/><path fill="#ebebeb" d="M 188.171875 85.109375 L 97.828125 85.109375 L 107.5625 194.160156 L 188.292969 194.160156 L 188.292969 158.101562 L 140.558594 158.101562 L 137.261719 121.175781 L 188.292969 121.175781 L 188.292969 85.109375 Z M 188.292969 251.632812 L 188.140625 251.675781 L 147.964844 240.832031 L 145.410156 212.074219 L 109.175781 212.074219 L 114.230469 268.691406 L 188.128906 289.109375 L 188.292969 289.058594 Z M 188.292969 251.632812 " fill-opacity="1" fill-rule="nonzero"/><path fill="#ffffff" d="M 188.171875 194.160156 L 232.597656 194.160156 L 228.511719 240.914062 L 188.273438 251.765625 L 188.273438 289.285156 L 262.234375 268.792969 L 272.140625 158.082031 L 188.292969 158.082031 Z M 277.675781 94.785156 L 278.53125 85.109375 L 188.148438 85.109375 L 188.148438 121.167969 L 275.285156 121.167969 L 276 113.0625 Z M 277.675781 94.785156 " fill-opacity="1" fill-rule="nonzero"/></svg>