<svg xmlns="http://www.w3.org/2000/svg" xmlns:xlink="http://www.w3.org/1999/xlink" width="500" zoomAndPan="magnify" viewBox="0 0 375 374.999991" height="500" preserveAspectRatio="xMidYMid meet" version="1.0"><defs><clipPath id="id1"><path d="M 21 5.769531 L 369 5.769531 L 369 340 L 21 340 Z M 21 5.769531 " clip-rule="nonzero"/></clipPath></defs><g clip-path="url(#id1)"><path fill="#0868ac" d="M 43.519531 83.949219 C 12.808594 128.113281 16.609375 185.558594 40.089844 232.609375 C 40.632812 233.738281 41.230469 234.847656 41.804688 235.953125 L 42.890625 238.070312 C 43.105469 238.480469 43.34375 238.882812 43.574219 239.285156 C 43.972656 240.042969 44.386719 240.738281 44.796875 241.476562 L 47.046875 245.316406 L 48.324219 247.421875 L 50.929688 251.492188 L 52.035156 253.207031 C 53.261719 255.027344 54.511719 256.851562 55.800781 258.632812 L 56.539062 259.628906 C 57.660156 261.167969 58.800781 262.6875 59.96875 264.1875 L 61.269531 265.835938 L 64.4375 269.742188 L 65.65625 271.195312 C 67.097656 272.902344 68.585938 274.59375 70.070312 276.242188 C 70.222656 276.40625 70.289062 276.460938 70.332031 276.523438 C 71.804688 278.125 73.304688 279.699219 74.824219 281.257812 L 76.265625 282.710938 L 79.847656 286.226562 L 81.3125 287.636719 C 82.925781 289.15625 84.5625 290.644531 86.226562 292.105469 L 91.609375 296.664062 L 93.453125 298.140625 L 97.175781 301.046875 L 99.164062 302.566406 L 103.339844 305.5625 L 105.292969 306.941406 C 106.628906 307.863281 107.984375 308.742188 109.351562 309.621094 L 111.109375 310.792969 C 113.203125 312.121094 115.320312 313.417969 117.457031 314.675781 L 119.214844 315.761719 L 123.988281 318.433594 C 124.859375 318.898438 125.746094 319.34375 126.625 319.789062 L 130.035156 321.558594 L 130.824219 321.9375 L 132.238281 322.609375 L 137.640625 325.105469 L 138.78125 325.613281 C 140.867188 326.523438 142.96875 327.394531 145.085938 328.230469 L 146.601562 328.835938 L 152.550781 331.039062 L 153.308594 331.300781 C 155.503906 332.058594 157.710938 332.78125 159.929688 333.472656 L 161.535156 333.949219 C 163.703125 334.632812 166.046875 335.46875 168.371094 335.878906 C 316.964844 362.976562 360.109375 246.574219 360.109375 246.574219 C 323.867188 293.800781 259.519531 306.257812 198.429688 292.390625 C 196.117188 291.867188 193.871094 291.152344 191.625 290.480469 L 189.933594 289.96875 C 187.734375 289.292969 185.550781 288.582031 183.378906 287.832031 L 182.476562 287.507812 C 180.542969 286.820312 178.617188 286.105469 176.703125 285.367188 L 175.078125 284.71875 C 172.980469 283.890625 170.898438 283.023438 168.835938 282.113281 L 167.589844 281.570312 L 162.328125 279.117188 L 160.808594 278.390625 C 159.441406 277.738281 158.09375 277.011719 156.738281 276.222656 L 154.027344 274.808594 C 152.375 273.941406 150.769531 273.007812 149.144531 272.074219 L 147.492188 271.152344 C 145.355469 269.890625 143.242188 268.597656 141.144531 267.269531 C 140.570312 266.898438 140.007812 266.507812 139.429688 266.128906 L 134.917969 263.125 C 134.417969 262.796875 133.832031 262.429688 133.460938 262.105469 L 129.1875 259.011719 L 127.289062 257.578125 L 123.4375 254.5625 L 121.722656 253.183594 L 116.925781 249.136719 C 116.75 248.984375 116.570312 248.839844 116.382812 248.703125 L 111.335938 244.113281 L 109.925781 242.746094 L 106.324219 239.164062 L 104.914062 237.753906 C 103.394531 236.203125 101.917969 234.640625 100.574219 233.042969 C 100.496094 232.96875 100.421875 232.894531 100.355469 232.804688 C 98.820312 231.121094 97.316406 229.40625 95.84375 227.664062 L 94.757812 226.25 L 91.5 222.238281 L 90.417969 220.75 L 86.664062 215.757812 C 52.613281 169.621094 40.4375 105.835938 67.5 53.535156 M 138.898438 46.753906 C 116.675781 78.730469 117.878906 121.625 135.210938 155.351562 C 138.117188 161.042969 141.394531 166.511719 145.039062 171.757812 C 148.371094 176.53125 152.0625 182.207031 156.476562 186.039062 C 158.082031 187.804688 159.753906 189.511719 161.46875 191.214844 L 162.773438 192.515625 C 164.429688 194.132812 166.125 195.710938 167.859375 197.246094 C 167.9375 197.300781 167.992188 197.378906 168.078125 197.429688 C 170.050781 199.167969 172.050781 200.6875 174.078125 202.402344 L 175.425781 203.453125 C 177.460938 205.023438 179.535156 206.539062 181.652344 208 L 181.835938 208.128906 C 182.769531 208.78125 183.726562 209.378906 184.679688 210.007812 C 185.136719 210.300781 185.570312 210.617188 186.023438 210.898438 C 187.542969 211.871094 189.078125 212.8125 190.636719 213.71875 L 191.289062 214.097656 L 195.367188 216.269531 C 195.84375 216.539062 196.453125 216.769531 196.820312 217.027344 L 199.675781 218.503906 C 199.816406 218.582031 199.96875 218.632812 200.109375 218.699219 C 202.066406 219.675781 204.050781 220.597656 206.054688 221.464844 L 207.359375 222.007812 C 208.976562 222.695312 210.601562 223.355469 212.242188 223.984375 L 214.324219 224.742188 C 215.8125 225.285156 217.304688 225.800781 218.804688 226.296875 L 220.835938 226.945312 C 222.972656 227.597656 225.175781 228.464844 227.3125 228.824219 C 342.042969 247.835938 368.53125 159.375 368.53125 159.375 C 344.65625 193.773438 298.429688 210.160156 249.082031 197.355469 C 246.898438 196.78125 244.734375 196.15625 242.582031 195.476562 C 241.929688 195.28125 241.277344 195.066406 240.628906 194.847656 L 236.070312 193.285156 L 233.898438 192.527344 C 232.261719 191.894531 230.632812 191.238281 229.015625 190.550781 L 227.695312 190.007812 C 225.675781 189.132812 223.679688 188.207031 221.703125 187.230469 L 218.699219 185.710938 L 216.960938 184.824219 C 215.683594 184.128906 214.417969 183.417969 213.164062 182.683594 L 212.253906 182.175781 C 210.699219 181.265625 209.167969 180.324219 207.652344 179.355469 C 207.183594 179.0625 206.730469 178.734375 206.261719 178.429688 L 203.277344 176.457031 C 201.175781 175 199.113281 173.488281 197.09375 171.921875 L 195.683594 170.835938 C 173.980469 153.777344 156.964844 130.46875 148.828125 104.058594 C 140.300781 76.660156 142.132812 45.894531 156.910156 20.9375 M 219.109375 18.953125 C 206.023438 38.324219 204.722656 62.171875 213.816406 83.460938 C 223.394531 106.066406 243.035156 123.785156 265.964844 132.292969 L 268.808594 133.378906 L 270.066406 133.769531 L 274.15625 134.851562 C 337.507812 147.09375 354.671875 102.34375 359.261719 95.757812 C 344.210938 117.425781 318.917969 122.625 287.882812 115.09375 C 285.433594 114.496094 282.742188 113.605469 280.375 112.773438 C 277.335938 111.695312 274.363281 110.460938 271.457031 109.070312 C 265.925781 106.410156 260.714844 103.234375 255.820312 99.535156 C 228.050781 78.472656 210.796875 38.171875 228.917969 5.445312 " fill-opacity="1" fill-rule="nonzero"/></g></svg>