<svg xmlns="http://www.w3.org/2000/svg" xmlns:xlink="http://www.w3.org/1999/xlink" width="500" zoomAndPan="magnify" viewBox="0 0 375 374.999991" height="500" preserveAspectRatio="xMidYMid meet" version="1.0"><defs><clipPath id="id1"><path d="M 23.652344 13.269531 L 361.902344 13.269531 L 361.902344 351.519531 L 23.652344 351.519531 Z M 23.652344 13.269531 " clip-rule="nonzero"/></clipPath></defs><rect x="-37.5" width="450" fill="#ffffff" y="-37.499999" height="449.999989" fill-opacity="1"/><rect x="-37.5" width="450" fill="#ffffff" y="-37.499999" height="449.999989" fill-opacity="1"/><rect x="-37.5" width="450" fill="#ffffff" y="-37.499999" height="449.999989" fill-opacity="1"/><g clip-path="url(#id1)"><path fill="#001d25" d="M 23.652344 41.457031 L 23.652344 323.332031 C 23.652344 338.90625 36.269531 351.519531 51.839844 351.519531 L 333.714844 351.519531 C 349.289062 351.519531 361.902344 338.90625 361.902344 323.332031 L 361.902344 41.457031 C 361.902344 25.882812 349.289062 13.269531 333.714844 13.269531 L 51.839844 13.269531 C 36.269531 13.269531 23.652344 25.882812 23.652344 41.457031 Z M 23.652344 41.457031 " fill-opacity="1" fill-rule="nonzero"/><path fill="#00c8fe" d="M 333.714844 27.363281 C 341.480469 27.363281 347.808594 33.691406 347.808594 41.457031 L 347.808594 323.332031 C 347.808594 331.097656 341.480469 337.425781 333.714844 337.425781 L 51.839844 337.425781 C 44.074219 337.425781 37.746094 331.097656 37.746094 323.332031 L 37.746094 41.457031 C 37.746094 33.691406 44.074219 27.363281 51.839844 27.363281 Z M 333.714844 13.269531 L 51.839844 13.269531 C 36.28125 13.269531 23.652344 25.882812 23.652344 41.457031 L 23.652344 323.332031 C 23.652344 338.90625 36.28125 351.519531 51.839844 351.519531 L 333.714844 351.519531 C 349.277344 351.519531 361.902344 338.90625 361.902344 323.332031 L 361.902344 41.457031 C 361.902344 25.882812 349.277344 13.269531 333.714844 13.269531 Z M 333.714844 13.269531 " fill-opacity="1" fill-rule="nonzero"/></g><path fill="#00c8fe" d="M 242.882812 245.84375 C 230.535156 245.84375 220.050781 243.265625 213.988281 239.785156 C 213.074219 239.320312 212.863281 238.628906 212.863281 237.457031 L 212.863281 216.78125 C 212.863281 215.375 213.539062 214.910156 214.46875 215.597656 C 223.261719 221.417969 233.523438 223.972656 242.824219 223.972656 C 253.988281 223.972656 258.640625 219.320312 258.640625 213.035156 C 258.640625 207.917969 255.398438 203.492188 241.203125 196.050781 C 221.191406 186.46875 212.820312 176.742188 212.820312 160.4375 C 212.820312 142.296875 227 127.175781 251.648438 127.175781 C 263.769531 127.175781 272.28125 129.035156 276.933594 131.121094 C 278.089844 131.824219 278.34375 132.980469 278.34375 133.910156 L 278.34375 153.21875 C 278.34375 154.390625 277.636719 155.09375 276.226562 154.628906 C 269.96875 150.910156 260.726562 148.570312 251.664062 148.570312 L 251.71875 148.625 C 240.558594 148.625 236.835938 154.207031 236.835938 158.859375 C 236.835938 163.972656 239.371094 167.453125 254.269531 175.136719 C 276.367188 185.847656 283.332031 196.066406 283.332031 211.171875 C 283.332031 233.722656 266.136719 245.84375 242.882812 245.84375 Z M 242.882812 245.84375 " fill-opacity="1" fill-rule="nonzero"/><path fill="#00c8fe" d="M 144.886719 88.164062 C 130.933594 88.164062 117.632812 88.402344 108.554688 88.867188 C 107.371094 88.867188 105.398438 89.558594 105.398438 90.503906 L 105.410156 90.503906 L 105.410156 242.125 C 105.410156 243.292969 105.863281 243.714844 107.03125 243.714844 L 128.792969 243.714844 C 129.949219 243.714844 130.414062 243.25 130.414062 242.082031 L 130.414062 187.933594 C 134.148438 187.933594 135.980469 188.171875 141.335938 188.171875 C 173.1875 188.171875 199.148438 172.808594 199.148438 137.011719 C 199.148438 109.585938 183.957031 88.164062 144.886719 88.164062 Z M 141.828125 165.59375 C 136.234375 165.59375 133.667969 165.59375 130.429688 165.367188 L 130.429688 110.953125 C 132.992188 110.714844 138.335938 110.488281 143.914062 110.488281 C 162.746094 110.488281 173.824219 119.5625 173.824219 137.464844 C 173.824219 159.789062 158.320312 165.59375 141.828125 165.59375 Z M 141.828125 165.59375 " fill-opacity="1" fill-rule="nonzero"/></svg>