<svg xmlns="http://www.w3.org/2000/svg" xmlns:xlink="http://www.w3.org/1999/xlink" width="500" zoomAndPan="magnify" viewBox="0 0 375 374.999991" height="500" preserveAspectRatio="xMidYMid meet" version="1.0"><defs><clipPath id="id1"><path d="M 24 77 L 351.96875 77 L 351.96875 323 L 24 323 Z M 24 77 " clip-rule="nonzero"/></clipPath></defs><g clip-path="url(#id1)"><path fill="#f06292" d="M 305.644531 218.511719 C 294.214844 218.574219 284.3125 221.316406 276.019531 225.410156 C 272.988281 219.351562 269.910156 214.023438 269.398438 210.0625 C 268.792969 205.441406 268.097656 202.675781 268.824219 197.167969 C 269.554688 191.660156 272.742188 183.855469 272.695312 183.269531 C 272.652344 182.683594 271.984375 179.882812 265.390625 179.828125 C 258.796875 179.785156 253.15625 181.101562 252.496094 182.839844 C 251.835938 184.578125 250.5625 188.496094 249.777344 192.582031 C 248.625 198.558594 236.613281 219.882812 229.796875 231.027344 C 227.566406 226.675781 225.671875 222.839844 225.277344 219.804688 C 224.675781 215.183594 223.976562 212.417969 224.707031 206.910156 C 225.433594 201.40625 228.625 193.601562 228.578125 193.011719 C 228.535156 192.425781 227.867188 189.625 221.273438 189.574219 C 214.679688 189.527344 209.039062 190.84375 208.378906 192.582031 C 207.714844 194.320312 207.003906 198.386719 205.65625 202.328125 C 204.304688 206.257812 188.347656 241.820312 184.164062 251.042969 C 182.03125 255.742188 180.179688 259.515625 178.871094 262.089844 C 178.863281 262.082031 178.863281 262.074219 178.863281 262.074219 C 178.863281 262.074219 178.78125 262.246094 178.648438 262.535156 C 177.527344 264.726562 176.863281 265.9375 176.863281 265.9375 C 176.863281 265.9375 176.871094 265.953125 176.886719 265.984375 C 175.996094 267.59375 175.042969 269.089844 174.574219 269.089844 C 174.25 269.089844 173.585938 264.800781 174.71875 258.914062 C 177.09375 246.578125 182.796875 227.34375 182.742188 226.675781 C 182.714844 226.332031 183.808594 222.980469 179.019531 221.226562 C 174.367188 219.523438 172.710938 222.363281 172.285156 222.371094 C 171.878906 222.378906 171.574219 223.375 171.574219 223.375 C 171.574219 223.375 176.753906 201.738281 161.6875 201.738281 C 152.265625 201.738281 139.214844 212.046875 132.785156 221.390625 C 128.726562 223.605469 120.039062 228.347656 110.828125 233.40625 C 107.292969 235.355469 103.679688 237.339844 100.253906 239.226562 C 100.023438 238.964844 99.785156 238.714844 99.546875 238.453125 C 81.269531 218.960938 47.5 205.171875 48.925781 178.960938 C 49.445312 169.429688 52.761719 144.339844 113.832031 113.914062 C 163.859375 88.984375 203.910156 95.84375 210.832031 111.042969 C 220.714844 132.769531 189.425781 173.132812 137.472656 178.960938 C 117.683594 181.183594 107.253906 173.503906 104.660156 170.648438 C 101.933594 167.640625 101.523438 167.507812 100.503906 168.070312 C 98.847656 168.992188 99.894531 171.644531 100.503906 173.230469 C 102.058594 177.265625 108.421875 184.421875 119.273438 187.988281 C 128.824219 191.125 152.0625 192.84375 180.164062 181.96875 C 211.648438 169.796875 236.226562 135.917969 229.003906 107.609375 C 221.660156 78.820312 173.914062 69.351562 128.726562 85.402344 C 101.800781 94.960938 72.6875 109.960938 51.75 129.535156 C 26.859375 152.8125 22.890625 173.082031 24.527344 181.546875 C 30.335938 211.632812 71.800781 231.222656 88.40625 245.738281 C 87.589844 246.191406 86.816406 246.613281 86.117188 247 C 77.792969 251.117188 46.183594 267.664062 38.273438 285.136719 C 29.304688 304.957031 39.703125 319.183594 46.585938 321.101562 C 67.90625 327.03125 89.789062 316.359375 101.554688 298.816406 C 113.3125 281.285156 111.878906 258.445312 106.480469 248.027344 C 106.414062 247.898438 106.339844 247.773438 106.273438 247.640625 C 108.421875 246.371094 110.613281 245.074219 112.785156 243.796875 C 117.019531 241.308594 121.183594 238.988281 124.785156 237.027344 C 122.765625 242.554688 121.285156 249.195312 120.519531 258.773438 C 119.613281 270.027344 124.230469 284.570312 130.265625 290.292969 C 132.925781 292.8125 136.121094 292.871094 138.144531 292.871094 C 145.167969 292.871094 148.371094 287.03125 151.898438 280.117188 C 156.226562 271.644531 160.066406 261.777344 160.066406 261.777344 C 160.066406 261.777344 155.25 288.429688 168.378906 288.429688 C 173.164062 288.429688 177.972656 282.222656 180.121094 279.0625 C 180.128906 279.101562 180.128906 279.117188 180.128906 279.117188 C 180.128906 279.117188 180.253906 278.90625 180.5 278.5 C 180.996094 277.742188 181.28125 277.257812 181.28125 277.257812 C 181.28125 277.257812 181.289062 277.207031 181.300781 277.117188 C 183.226562 273.777344 187.492188 266.167969 193.886719 253.617188 C 202.148438 237.398438 210.074219 217.078125 210.074219 217.078125 C 210.074219 217.078125 210.808594 222.042969 213.222656 230.265625 C 214.644531 235.09375 217.660156 240.4375 220.046875 245.566406 C 218.128906 248.226562 216.953125 249.75 216.953125 249.75 C 216.953125 249.75 216.960938 249.78125 216.984375 249.832031 C 215.453125 251.867188 213.738281 254.0625 211.9375 256.203125 C 205.414062 263.96875 197.644531 272.84375 196.605469 275.398438 C 195.378906 278.417969 195.667969 280.632812 198.039062 282.421875 C 199.769531 283.722656 202.847656 283.929688 206.066406 283.714844 C 211.929688 283.320312 216.046875 281.863281 218.085938 280.980469 C 221.257812 279.859375 224.953125 278.097656 228.414062 275.546875 C 234.816406 270.84375 238.671875 264.117188 238.300781 255.199219 C 238.09375 250.285156 236.53125 245.417969 234.546875 240.824219 C 235.125 239.992188 235.707031 239.144531 236.292969 238.296875 C 246.378906 223.550781 254.207031 207.351562 254.207031 207.351562 C 254.207031 207.351562 254.941406 212.316406 257.355469 220.535156 C 258.574219 224.691406 260.992188 229.230469 263.160156 233.675781 C 253.675781 241.382812 247.796875 250.339844 245.753906 256.210938 C 241.980469 267.074219 244.9375 271.996094 250.480469 273.117188 C 252.992188 273.621094 256.546875 272.472656 259.214844 271.339844 C 262.535156 270.242188 266.527344 268.40625 270.257812 265.664062 C 276.660156 260.957031 282.8125 254.375 282.441406 245.460938 C 282.269531 241.40625 281.167969 237.375 279.675781 233.511719 C 287.71875 230.160156 298.121094 228.300781 311.382812 229.847656 C 339.824219 233.167969 345.398438 250.925781 344.335938 258.355469 C 343.265625 265.789062 337.304688 269.878906 335.304688 271.109375 C 333.3125 272.34375 332.703125 272.777344 332.867188 273.691406 C 333.113281 275.019531 334.035156 274.976562 335.738281 274.6875 C 338.078125 274.292969 350.667969 268.644531 351.210938 254.921875 C 351.886719 237.488281 335.203125 218.355469 305.644531 218.511719 Z M 86.414062 292.417969 C 76.988281 302.699219 63.835938 306.578125 58.1875 303.308594 C 52.09375 299.777344 54.507812 284.644531 66.066406 273.734375 C 73.109375 267.089844 82.207031 260.964844 88.242188 257.199219 C 89.617188 256.371094 91.632812 255.160156 94.085938 253.691406 C 94.492188 253.460938 94.722656 253.332031 94.722656 253.332031 L 94.714844 253.316406 C 95.191406 253.035156 95.675781 252.746094 96.171875 252.441406 C 100.386719 267.96875 96.304688 281.636719 86.414062 292.417969 Z M 155.050781 245.765625 C 151.773438 253.765625 144.90625 274.230469 140.722656 273.132812 C 137.132812 272.1875 134.945312 256.632812 140.007812 241.324219 C 142.550781 233.617188 147.992188 224.40625 151.1875 220.832031 C 156.328125 215.078125 161.992188 213.199219 163.367188 215.53125 C 165.113281 218.507812 157.109375 240.75 155.050781 245.765625 Z M 211.753906 272.820312 C 210.363281 273.546875 209.082031 274.003906 208.496094 273.652344 C 208.058594 273.394531 209.070312 272.433594 209.070312 272.433594 C 209.070312 272.433594 216.160156 264.800781 218.953125 261.332031 C 220.582031 259.308594 222.460938 256.90625 224.511719 254.234375 C 224.527344 254.5 224.535156 254.765625 224.535156 255.027344 C 224.519531 264.167969 215.691406 270.339844 211.753906 272.820312 Z M 255.429688 262.859375 C 254.390625 262.125 254.570312 259.738281 257.980469 252.300781 C 259.320312 249.378906 262.378906 244.464844 267.6875 239.769531 C 268.304688 241.703125 268.675781 243.550781 268.667969 245.277344 C 268.601562 256.78125 260.394531 261.078125 255.429688 262.859375 Z M 255.429688 262.859375 " fill-opacity="1" fill-rule="nonzero"/></g></svg>