<svg xmlns="http://www.w3.org/2000/svg" xmlns:xlink="http://www.w3.org/1999/xlink" width="500" zoomAndPan="magnify" viewBox="0 0 375 374.999991" height="500" preserveAspectRatio="xMidYMid meet" version="1.0"><path fill="#2196f3" d="M 286.949219 64.136719 L 171.949219 64.136719 L 171.949219 265.386719 L 286.949219 265.386719 C 290.925781 265.386719 294.136719 262.175781 294.136719 258.199219 L 294.136719 71.324219 C 294.136719 67.351562 290.925781 64.136719 286.949219 64.136719 Z M 286.949219 64.136719 " fill-opacity="1" fill-rule="nonzero"/><path fill="#ffffff" d="M 171.949219 100.082031 L 272.574219 100.082031 L 272.574219 114.449219 L 171.949219 114.449219 Z M 171.949219 100.082031 " fill-opacity="1" fill-rule="nonzero"/><path fill="#ffffff" d="M 171.949219 128.824219 L 272.574219 128.824219 L 272.574219 143.199219 L 171.949219 143.199219 Z M 171.949219 128.824219 " fill-opacity="1" fill-rule="nonzero"/><path fill="#ffffff" d="M 171.949219 157.582031 L 272.574219 157.582031 L 272.574219 171.957031 L 171.949219 171.957031 Z M 171.949219 157.582031 " fill-opacity="1" fill-rule="nonzero"/><path fill="#ffffff" d="M 171.949219 186.332031 L 272.574219 186.332031 L 272.574219 200.699219 L 171.949219 200.699219 Z M 171.949219 186.332031 " fill-opacity="1" fill-rule="nonzero"/><path fill="#ffffff" d="M 171.949219 215.074219 L 272.574219 215.074219 L 272.574219 229.457031 L 171.949219 229.457031 Z M 171.949219 215.074219 " fill-opacity="1" fill-rule="nonzero"/><path fill="#0d47a1" d="M 186.324219 294.136719 L 35.386719 265.386719 L 35.386719 64.136719 L 186.324219 35.386719 Z M 186.324219 294.136719 " fill-opacity="1" fill-rule="nonzero"/><path fill="#ffffff" d="M 144.398438 215.160156 L 124.871094 215.160156 L 111.917969 150.558594 C 111.214844 147.132812 110.804688 143.402344 110.667969 139.230469 L 110.4375 139.230469 C 110.128906 143.808594 109.648438 147.582031 109.023438 150.558594 L 95.726562 215.160156 L 75.40625 215.160156 L 54.851562 114.433594 L 74.078125 114.433594 L 85.117188 181.480469 C 85.5625 184.382812 85.914062 188.222656 86.144531 193.03125 L 86.445312 193.03125 C 86.582031 189.449219 87.152344 185.476562 88.050781 181.207031 L 102.210938 114.429688 L 121.054688 114.429688 L 133.882812 182.019531 C 134.328125 184.519531 134.738281 188.101562 135.105469 192.878906 L 135.328125 192.878906 C 135.472656 189.179688 135.855469 185.441406 136.480469 181.644531 L 147.28125 114.429688 L 165.019531 114.429688 Z M 144.398438 215.160156 " fill-opacity="1" fill-rule="nonzero"/></svg>