<svg xmlns="http://www.w3.org/2000/svg" xmlns:xlink="http://www.w3.org/1999/xlink" width="500" zoomAndPan="magnify" viewBox="0 0 375 374.999991" height="500" preserveAspectRatio="xMidYMid meet" version="1.0"><defs><clipPath id="id1"><path d="M 10.382812 10.382812 L 364.382812 10.382812 L 364.382812 364.382812 L 10.382812 364.382812 Z M 10.382812 10.382812 " clip-rule="nonzero"/></clipPath></defs><g clip-path="url(#id1)"><path fill="#00749a" d="M 35.386719 187.382812 C 35.386719 247.675781 70.011719 299.613281 120.566406 323.984375 L 48.859375 125.820312 C 40.53125 145.058594 35.386719 165.589844 35.386719 187.382812 Z M 289.988281 179.683594 C 289.988281 161.101562 282.929688 147.605469 277.15625 138 C 269.457031 125.167969 262.410156 114.914062 262.410156 102.09375 C 262.410156 87.988281 273.316406 75.15625 288.074219 75.15625 L 290 75.15625 C 263.050781 50.144531 227.144531 35.386719 187.382812 35.386719 C 184.253906 35.414062 181.128906 35.535156 178.007812 35.753906 C 174.882812 35.972656 171.769531 36.285156 168.667969 36.691406 C 165.566406 37.097656 162.476562 37.601562 159.402344 38.195312 C 156.332031 38.792969 153.28125 39.480469 150.25 40.261719 C 147.21875 41.039062 144.214844 41.914062 141.234375 42.875 C 138.257812 43.839844 135.3125 44.894531 132.398438 46.035156 C 129.484375 47.179688 126.609375 48.410156 123.769531 49.726562 C 120.929688 51.046875 118.132812 52.449219 115.378906 53.9375 C 112.625 55.425781 109.921875 56.996094 107.261719 58.648438 C 104.605469 60.300781 102 62.03125 99.445312 63.84375 C 96.894531 65.65625 94.398438 67.542969 91.960938 69.503906 C 89.523438 71.46875 87.148438 73.503906 84.835938 75.613281 C 82.519531 77.71875 80.273438 79.894531 78.089844 82.140625 C 75.910156 84.382812 73.796875 86.691406 71.757812 89.066406 C 69.714844 91.4375 67.75 93.871094 65.855469 96.363281 C 63.960938 98.855469 62.148438 101.402344 60.410156 104.007812 L 70.035156 104.007812 C 86.074219 104.007812 110.433594 102.082031 110.433594 102.082031 C 118.773438 101.441406 119.417969 113.621094 111.71875 114.914062 C 111.71875 114.914062 103.375 116.199219 94.402344 116.199219 L 149.5625 280.363281 L 182.902344 180.957031 L 159.175781 116.1875 L 143.132812 114.925781 C 134.792969 114.285156 136.078125 102.09375 143.777344 102.09375 C 143.777344 102.09375 168.777344 104.019531 183.535156 104.019531 C 199.574219 104.019531 223.933594 102.09375 223.933594 102.09375 C 232.277344 101.449219 232.917969 113.632812 225.21875 114.925781 C 225.21875 114.925781 216.878906 116.207031 207.90625 116.207031 L 263.050781 279.757812 L 278.539062 229.089844 C 284.957031 207.925781 290.078125 193.179688 290.078125 179.707031 Z M 189.949219 200.847656 L 144.417969 332.96875 C 157.882812 336.816406 172.628906 339.382812 187.382812 339.382812 C 205.339844 339.382812 222.011719 336.066406 238.050781 331.042969 C 237.410156 330.402344 237.410156 329.757812 236.769531 329.117188 Z M 320.777344 114.925781 L 322.058594 130.414062 C 322.058594 145.898438 319.492188 163.125 310.519531 184.929688 L 264.347656 318.960938 C 309.238281 292.667969 340.015625 243.925781 340.015625 187.496094 C 339.371094 161.199219 332.3125 136.828125 320.765625 115.035156 Z M 187.382812 10.382812 C 89.902344 10.382812 10.382812 89.902344 10.382812 187.382812 C 10.382812 284.867188 89.902344 364.382812 187.382812 364.382812 C 284.867188 364.382812 364.382812 284.867188 364.382812 187.382812 C 364.382812 89.902344 284.867188 10.382812 187.382812 10.382812 Z M 187.382812 356.683594 C 94.394531 356.683594 18.726562 281.019531 18.726562 187.382812 C 18.730469 184.625 18.800781 181.867188 18.941406 179.113281 C 19.082031 176.355469 19.289062 173.605469 19.5625 170.863281 C 19.835938 168.117188 20.175781 165.378906 20.585938 162.648438 C 20.992188 159.921875 21.46875 157.203125 22.011719 154.5 C 22.550781 151.792969 23.160156 149.101562 23.832031 146.425781 C 24.503906 143.753906 25.242188 141.09375 26.046875 138.457031 C 26.851562 135.816406 27.71875 133.199219 28.652344 130.601562 C 29.582031 128.003906 30.578125 125.429688 31.636719 122.882812 C 32.691406 120.335938 33.8125 117.8125 34.992188 115.320312 C 36.175781 112.828125 37.417969 110.363281 38.71875 107.933594 C 40.019531 105.5 41.382812 103.101562 42.800781 100.734375 C 44.222656 98.367188 45.699219 96.039062 47.230469 93.746094 C 48.765625 91.453125 50.355469 89.199219 52 86.980469 C 53.640625 84.765625 55.339844 82.59375 57.089844 80.460938 C 58.839844 78.328125 60.644531 76.238281 62.496094 74.195312 C 64.347656 72.152344 66.25 70.152344 68.203125 68.203125 C 70.152344 66.25 72.152344 64.347656 74.195312 62.496094 C 76.238281 60.644531 78.328125 58.839844 80.460938 57.089844 C 82.59375 55.339844 84.765625 53.640625 86.980469 52 C 89.199219 50.355469 91.453125 48.765625 93.746094 47.230469 C 96.039062 45.699219 98.367188 44.222656 100.734375 42.800781 C 103.101562 41.382812 105.5 40.019531 107.933594 38.71875 C 110.363281 37.417969 112.828125 36.175781 115.320312 34.992188 C 117.8125 33.8125 120.335938 32.691406 122.882812 31.636719 C 125.429688 30.578125 128.003906 29.582031 130.601562 28.652344 C 133.199219 27.71875 135.816406 26.851562 138.457031 26.046875 C 141.09375 25.242188 143.753906 24.503906 146.425781 23.832031 C 149.101562 23.160156 151.792969 22.550781 154.5 22.011719 C 157.203125 21.46875 159.921875 20.992188 162.648438 20.585938 C 165.378906 20.175781 168.117188 19.835938 170.863281 19.5625 C 173.605469 19.289062 176.355469 19.082031 179.113281 18.941406 C 181.867188 18.800781 184.625 18.730469 187.382812 18.726562 C 190.144531 18.730469 192.902344 18.800781 195.65625 18.941406 C 198.410156 19.082031 201.164062 19.289062 203.90625 19.5625 C 206.652344 19.835938 209.390625 20.175781 212.117188 20.585938 C 214.847656 20.992188 217.566406 21.46875 220.269531 22.011719 C 222.976562 22.550781 225.664062 23.160156 228.339844 23.832031 C 231.015625 24.503906 233.675781 25.242188 236.3125 26.046875 C 238.953125 26.851562 241.570312 27.71875 244.167969 28.652344 C 246.765625 29.582031 249.339844 30.578125 251.886719 31.636719 C 254.433594 32.691406 256.957031 33.8125 259.449219 34.992188 C 261.941406 36.175781 264.40625 37.417969 266.835938 38.71875 C 269.269531 40.019531 271.667969 41.382812 274.035156 42.800781 C 276.402344 44.222656 278.730469 45.699219 281.023438 47.230469 C 283.316406 48.765625 285.570312 50.355469 287.789062 52 C 290.003906 53.640625 292.175781 55.339844 294.308594 57.089844 C 296.441406 58.839844 298.53125 60.644531 300.574219 62.496094 C 302.617188 64.347656 304.617188 66.25 306.566406 68.203125 C 308.519531 70.152344 310.417969 72.152344 312.273438 74.195312 C 314.125 76.238281 315.929688 78.328125 317.679688 80.460938 C 319.429688 82.59375 321.125 84.765625 322.769531 86.980469 C 324.414062 89.199219 326.003906 91.453125 327.539062 93.746094 C 329.070312 96.039062 330.546875 98.367188 331.96875 100.734375 C 333.386719 103.101562 334.75 105.5 336.050781 107.933594 C 337.351562 110.363281 338.59375 112.828125 339.777344 115.320312 C 340.957031 117.8125 342.078125 120.335938 343.132812 122.882812 C 344.191406 125.429688 345.1875 128.003906 346.117188 130.601562 C 347.050781 133.199219 347.917969 135.816406 348.722656 138.457031 C 349.523438 141.09375 350.261719 143.753906 350.9375 146.425781 C 351.609375 149.101562 352.21875 151.792969 352.757812 154.5 C 353.300781 157.203125 353.773438 159.921875 354.183594 162.648438 C 354.59375 165.378906 354.933594 168.117188 355.207031 170.863281 C 355.480469 173.605469 355.6875 176.355469 355.828125 179.113281 C 355.96875 181.867188 356.039062 184.625 356.042969 187.382812 C 356.042969 281.019531 280.375 356.683594 187.382812 356.683594 Z M 187.382812 356.683594 " fill-opacity="1" fill-rule="nonzero"/></g></svg>