<svg xmlns="http://www.w3.org/2000/svg" xmlns:xlink="http://www.w3.org/1999/xlink" width="500" zoomAndPan="magnify" viewBox="0 0 375 374.999991" height="500" preserveAspectRatio="xMidYMid meet" version="1.0"><defs><clipPath id="id1"><path d="M 12.691406 13.847656 L 361.441406 13.847656 L 361.441406 362.597656 L 12.691406 362.597656 Z M 12.691406 13.847656 " clip-rule="nonzero"/></clipPath></defs><rect x="-37.5" width="450" fill="#ffffff" y="-37.499999" height="449.999989" fill-opacity="1"/><rect x="-37.5" width="450" fill="#ffffff" y="-37.499999" height="449.999989" fill-opacity="1"/><g clip-path="url(#id1)"><path fill="#ff41c8" d="M 12.691406 52.597656 C 12.691406 31.195312 30.042969 13.847656 51.441406 13.847656 L 322.691406 13.847656 C 344.09375 13.847656 361.441406 31.195312 361.441406 52.597656 L 361.441406 323.847656 C 361.441406 345.246094 344.09375 362.597656 322.691406 362.597656 L 51.441406 362.597656 C 30.042969 362.597656 12.691406 345.246094 12.691406 323.847656 Z M 12.691406 52.597656 " fill-opacity="1" fill-rule="nonzero"/></g><path fill="#16020b" d="M 41.753906 42.910156 L 41.753906 333.535156 L 332.378906 333.535156 L 332.378906 42.910156 Z M 139.53125 165.890625 L 158.074219 118.585938 L 189.953125 118.585938 L 157.597656 186.894531 L 190.710938 256.335938 L 158.449219 256.335938 L 139.53125 208.175781 L 120.707031 256.335938 L 88.449219 256.335938 L 121.558594 186.894531 L 89.105469 118.585938 L 120.988281 118.585938 Z M 197.421875 202.035156 C 197.421875 185.257812 200.261719 172.742188 205.9375 164.476562 C 211.617188 156.214844 219.871094 152.085938 230.730469 152.085938 C 238.605469 152.085938 245.171875 155.496094 250.402344 162.308594 L 250.402344 111.03125 L 277.363281 111.03125 L 277.363281 256.34375 L 253.050781 256.34375 L 251.820312 245.9375 C 246.335938 254.144531 239.261719 258.242188 230.621094 258.242188 C 219.90625 258.242188 211.722656 254.144531 206.074219 245.9375 C 200.425781 237.734375 197.539062 225.691406 197.414062 209.804688 L 197.414062 202.035156 Z M 224.296875 208.75 C 224.296875 218.84375 225.363281 225.894531 227.511719 229.898438 C 229.664062 233.898438 233.285156 235.902344 238.390625 235.902344 C 243.691406 235.902344 247.691406 233.539062 250.402344 228.8125 L 250.402344 182.078125 C 247.757812 177.03125 243.777344 174.511719 238.488281 174.511719 C 233.566406 174.511719 229.972656 176.5 227.707031 180.472656 C 225.441406 184.441406 224.296875 191.515625 224.296875 201.667969 Z M 224.296875 208.75 " fill-opacity="1" fill-rule="nonzero"/></svg>